<svg width="120" height="70" viewBox="0 0 120 70" fill="none" xmlns="http://www.w3.org/2000/svg">
<path d="M4.02937 43.0123H12.8824L10.4417 47.0561H4.02937V59.1875H0V33.6104H15.0054V37.6398H4.02937V43.0123Z" fill="#00026F"/>
<path d="M21.1722 36.6866V59.1875H17.1429V33.6104L21.1722 36.6866Z" fill="#00026F"/>
<path d="M34.4879 48.3414L31.715 54.3927L26.4725 43.0267H22.0532L29.4909 59.2164L25.2016 68.5749H29.6209L39.5282 46.9983L34.4879 48.3414Z" fill="#00026F"/>
<path d="M85.7143 39.9216V59.1875H81.6705V43.0123L85.7143 39.9216Z" fill="#00026F"/>
<path d="M88.6172 43.0123H91.6067V36.6866L95.6505 33.6104V43.0267H97.7446L99.3477 47.0561H95.6505V59.1875H91.6067V47.0561H88.6172V43.0123Z" fill="#00026F"/>
<path d="M103.839 68.5605L108.172 59.202L100.691 43.0123H105.125L110.353 54.3927L115.566 43.0123H120L108.273 68.5605H103.839Z" fill="#00026F"/>
<path d="M65.5097 38.7518C67.0323 37.6488 68.8724 37.071 70.7522 37.1054C71.7851 37.0984 72.8098 37.2896 73.7706 37.6687C74.727 38.0333 75.6154 38.5556 76.3991 39.214L78.9553 36.08C77.8414 35.1499 76.5827 34.4084 75.2293 33.8848C72.9902 33.0603 70.5673 32.8681 68.2262 33.3292C65.8851 33.7903 63.7161 34.8869 61.9569 36.4989L65.5097 38.7518Z" fill="#00026F"/>
<path d="M73.7706 55.1726C72.8061 55.5355 71.7827 55.7167 70.7522 55.7069C69.552 55.732 68.3598 55.5075 67.251 55.0476C66.1422 54.5876 65.141 53.9024 64.311 53.0351C63.4482 52.167 62.7695 51.1338 62.3153 49.9973C61.8612 48.8607 61.6411 47.6442 61.6681 46.4206C61.6681 46.1896 61.6681 45.9729 61.6681 45.7563L57.7109 44.702C57.64 45.2721 57.6062 45.8462 57.6098 46.4206C57.5767 48.1706 57.8973 49.9092 58.5525 51.5322C59.2076 53.1553 60.1838 54.6293 61.4226 55.8658C62.6229 57.1254 64.0723 58.1213 65.6785 58.7901C67.2848 59.459 69.0126 59.7861 70.7522 59.7508C72.2811 59.7536 73.798 59.4796 75.2293 58.942C76.5872 58.4147 77.8467 57.6628 78.9553 56.7179L76.3991 53.5984C75.6103 54.2568 74.7234 54.788 73.7706 55.1726Z" fill="#00026F"/>
<path d="M48.8001 41.4814H48.6268L34.9645 45.1642C34.6901 45.2797 34.5168 45.1642 34.5312 44.832V43.1567C34.5243 43.0924 34.5372 43.0275 34.5682 42.9707C34.5992 42.914 34.6467 42.868 34.7045 42.839L45.7384 35.7623C46.6482 35.1702 47.5581 34.2314 48.4824 33.6393C48.515 33.6205 48.5418 33.593 48.5597 33.5598C48.5775 33.5267 48.5858 33.4892 48.5835 33.4516C48.5835 32.0073 48.5835 31.0397 48.5835 29.6677C48.5919 28.5386 48.7771 27.4178 49.1323 26.346C49.3398 25.7186 49.6631 25.1356 50.0854 24.6274C50.3831 24.2531 50.8113 24.0055 51.2841 23.9342C51.5511 23.9054 51.821 23.9401 52.072 24.0355C52.323 24.1309 52.5479 24.2842 52.7284 24.483C53.1551 24.9194 53.4849 25.4411 53.696 26.0138C54.0403 26.912 54.2496 27.8561 54.317 28.8156C54.4158 30.0792 54.4495 31.3469 54.4181 32.6139C54.4181 32.8883 54.4181 33.1772 54.4181 33.466C54.4149 33.5018 54.4229 33.5377 54.441 33.5688C54.4591 33.5998 54.4864 33.6245 54.5192 33.6393C55.7034 34.3903 56.8733 35.5023 58.0575 36.2678L68.297 42.839C68.3524 42.8708 68.3979 42.9174 68.4284 42.9734C68.459 43.0295 68.4735 43.0929 68.4703 43.1567V44.9475C68.4703 45.193 68.3404 45.2941 68.0948 45.2219L59.935 43.0412L54.2448 41.5103H54.1148C54.1148 41.6114 54.1148 41.7125 54.1148 41.7991C54.1148 42.9978 54.0137 44.1821 53.9704 45.3664C53.8837 47.2727 53.8115 49.1646 53.7249 51.1432C53.7226 51.2555 53.7641 51.3642 53.8404 51.4465C55.1258 52.7896 56.3967 54.1328 57.682 55.4614C57.7923 55.5569 57.8775 55.6778 57.9304 55.8138C57.9832 55.9497 58.0021 56.0964 57.9853 56.2413C57.9709 56.4191 57.9709 56.5978 57.9853 56.7757C57.9853 57.0645 57.812 57.18 57.552 57.0645L52.8295 54.9848H52.6417V55.317C52.561 55.726 52.3881 56.1113 52.1362 56.4435C52.0823 56.5332 52.0061 56.6075 51.915 56.659C51.8239 56.7105 51.721 56.7376 51.6163 56.7376C51.5116 56.7376 51.4087 56.7105 51.3176 56.659C51.2265 56.6075 51.1503 56.5332 51.0964 56.4435C50.7973 56.0841 50.6024 55.6495 50.5332 55.187C50.5332 55.187 50.5332 55.1004 50.5332 55.0282H50.3887L45.8539 57.0212C45.565 57.1512 45.4062 57.0212 45.4062 56.7323C45.4062 56.4435 45.4062 56.198 45.4062 55.938C45.4044 55.881 45.4151 55.8244 45.4375 55.772C45.46 55.7196 45.4936 55.6727 45.5362 55.6347L49.3344 51.6343C49.3737 51.5921 49.4032 51.5417 49.4207 51.4867C49.4382 51.4318 49.4432 51.3737 49.4355 51.3165C49.3344 49.0347 49.2478 46.7384 49.1467 44.4565C49.1467 43.5322 49.0745 42.6079 49.0456 41.6836C48.992 41.6709 48.9419 41.646 48.8994 41.611C48.8568 41.5759 48.8229 41.5316 48.8001 41.4814Z" fill="#F5C603"/>
<path d="M37.1453 68.4883C36.9029 68.4959 36.6663 68.4136 36.4809 68.2572C36.2885 68.0967 36.152 67.8792 36.091 67.6362C36.0138 67.767 35.9041 67.8757 35.7725 67.9516C35.6409 68.0275 35.4919 68.0681 35.34 68.0694C35.1753 68.0757 35.0113 68.0437 34.861 67.9761C34.7107 67.9084 34.5781 67.8069 34.4735 67.6795C34.245 67.4045 34.1267 67.0546 34.1413 66.6974C34.1155 66.3256 34.2346 65.9582 34.4735 65.672C34.5773 65.5438 34.7098 65.4416 34.8603 65.3739C35.0108 65.3062 35.1751 65.2747 35.34 65.2821H36.7842V67.1307C36.7842 67.5929 37.0009 67.8239 37.4341 67.8239H38.1996V68.4883H37.1453ZM36.1054 65.7876H35.5278C35.4257 65.7836 35.3241 65.8038 35.2312 65.8464C35.1384 65.8891 35.0569 65.9531 34.9934 66.0331C34.8473 66.2225 34.7754 66.4588 34.7912 66.6974C34.7868 66.9079 34.8473 67.1147 34.9645 67.2896C35.0166 67.3631 35.0861 67.4226 35.1667 67.4629C35.2473 67.5032 35.3366 67.523 35.4267 67.5206C35.5222 67.5224 35.6168 67.501 35.7023 67.4582C35.7879 67.4155 35.8617 67.3527 35.9177 67.2751C36.0479 67.0894 36.1138 66.8663 36.1054 66.6397V65.7876ZM34.9934 64.82V64.1701H35.6288V64.82H34.9934ZM36.091 64.82V64.1701H36.7264V64.82H36.091Z" fill="#00026F"/>
<path d="M41.3479 68.4883H37.9973V67.8239H40.6403C40.6491 67.49 40.5419 67.1634 40.337 66.8996C40.2167 66.754 40.0638 66.6389 39.8906 66.5636C39.7175 66.4883 39.529 66.455 39.3405 66.4664C39.1718 66.4679 39.005 66.5022 38.8494 66.5675C38.6502 66.6521 38.4725 66.7804 38.3295 66.943C38.2352 66.7628 38.1291 66.5891 38.0118 66.423C38.1967 66.2571 38.4062 66.1207 38.6328 66.0187C38.9356 65.8817 39.2683 65.8244 39.5994 65.8522C39.9305 65.88 40.249 65.992 40.5247 66.1775C40.8148 66.3972 41.043 66.6883 41.1873 67.0223C41.3315 67.3564 41.3869 67.7221 41.3479 68.0839V68.4883Z" fill="#00026F"/>
<path d="M42.8932 68.4883C42.7598 68.4968 42.6262 68.4738 42.5032 68.4211C42.3803 68.3684 42.2715 68.2875 42.1856 68.185C42.0134 67.9738 41.9258 67.7061 41.9401 67.434V64.7333H42.59V67.174C42.59 67.4484 42.59 67.6362 42.7777 67.7228C42.9317 67.8079 43.1083 67.8432 43.2832 67.8239V68.4883H42.8932Z" fill="#00026F"/>
<path d="M43.0232 69.7159V69.066H43.6731V69.7159H43.0232ZM43.0232 68.4449V67.7806H43.6442C43.7225 67.7906 43.8019 67.7782 43.8735 67.745C43.945 67.7118 44.0057 67.6591 44.0486 67.5929C44.0794 67.4452 44.0794 67.2928 44.0486 67.1452V65.802H44.6841V67.1163C44.7129 67.3477 44.6619 67.582 44.5396 67.7806H45.6373V68.4449H43.0232ZM44.0919 69.7159V69.066H44.7418V69.7159H44.0919Z" fill="#00026F"/>
<path d="M45.5651 67.8239H46.1572C46.4894 67.8239 46.6482 67.5929 46.6482 67.1452V65.8454H47.3559V67.1163C47.3772 67.3474 47.3425 67.5802 47.2548 67.795H47.8614C48.1935 67.795 48.3524 67.5784 48.3524 67.1452V65.8165H49.0167V67.0874C49.046 67.331 49.0007 67.5777 48.8868 67.795H49.5078C49.8399 67.795 50.0133 67.5784 50.0133 67.1596V65.8165H50.6632V67.0729C50.6712 67.3215 50.6217 67.5686 50.5187 67.795H50.7787V68.4594H45.5651V67.8239Z" fill="#00026F"/>
<path d="M51.2119 68.4883H50.5187V67.8239H51.0675C51.148 67.8368 51.2305 67.8259 51.3049 67.7925C51.3793 67.7592 51.4424 67.7048 51.4863 67.6362C51.5082 67.4974 51.5082 67.3561 51.4863 67.2174V64.7333H52.1362V67.434C52.1796 68.1417 51.8618 68.4883 51.2119 68.4883Z" fill="#00026F"/>
<path d="M52.7717 68.4883V64.7333H53.4216V68.4883H52.7717Z" fill="#00026F"/>
<path d="M55.2124 69.4559V68.936C55.6168 68.936 55.819 68.676 55.8334 68.1994C55.7659 68.2994 55.6724 68.3792 55.563 68.43C55.4536 68.4809 55.3324 68.5011 55.2124 68.4883C55.0448 68.4954 54.8776 68.4654 54.7228 68.4005C54.568 68.3356 54.4295 68.2374 54.317 68.1128C54.0855 67.8492 53.9578 67.5104 53.9578 67.1596C53.9578 66.8088 54.0855 66.47 54.317 66.2064C54.432 66.086 54.5713 65.9915 54.7257 65.9292C54.8802 65.8669 55.0461 65.8383 55.2124 65.8454C55.3843 65.8388 55.5556 65.8689 55.715 65.9337C55.8743 65.9984 56.0181 66.0963 56.1367 66.2209C56.3738 66.4802 56.4984 66.823 56.4833 67.174V68.4016C56.4833 69.0948 56.0212 69.4559 55.2124 69.4559ZM55.6313 66.5675C55.5797 66.5024 55.5137 66.4503 55.4385 66.4152C55.3633 66.3801 55.281 66.363 55.198 66.3653C55.1158 66.3646 55.0348 66.384 54.9618 66.4218C54.8888 66.4595 54.8261 66.5145 54.7792 66.5819C54.6729 66.7288 54.6172 66.9061 54.6203 67.0874C54.6136 67.2803 54.675 67.4694 54.7936 67.6217C54.8429 67.6856 54.9065 67.7372 54.9792 67.7723C55.0518 67.8074 55.1317 67.8251 55.2124 67.8239C55.2956 67.8273 55.3783 67.8108 55.4537 67.7756C55.5291 67.7404 55.5949 67.6876 55.6457 67.6217C55.7539 67.4759 55.8099 67.2978 55.8046 67.1163C55.7974 66.9433 55.7369 66.7768 55.6313 66.6397V66.5675Z" fill="#00026F"/>
<path d="M59.675 68.4883C59.6573 68.6339 59.608 68.7739 59.5307 68.8986C59.4534 69.0233 59.3499 69.1297 59.2273 69.2104C58.9355 69.3846 58.5993 69.4699 58.2597 69.4559V68.8927C58.3707 68.9073 58.4835 68.896 58.5893 68.8596C58.6951 68.8232 58.7911 68.7627 58.8695 68.6828C58.9479 68.603 59.0067 68.506 59.0413 68.3996C59.0758 68.2931 59.0851 68.1801 59.0685 68.0695V65.8454H59.7184V67.8239H60.7004V68.4883H59.675Z" fill="#00026F"/>
<path d="M63.7622 68.4883C63.3067 68.5164 62.8535 68.4056 62.4624 68.1705C62.0784 68.4098 61.6283 68.5211 61.177 68.4883H60.4694V67.8239H61.1481C61.3245 67.8597 61.5062 67.8597 61.6825 67.8239C61.5047 67.6794 61.3615 67.4968 61.2637 67.2896C61.1748 67.0993 61.1257 66.8929 61.1193 66.683C61.0949 66.5493 61.0949 66.4123 61.1193 66.2786C61.2211 66.0175 61.3968 65.7917 61.6247 65.6287C61.8533 65.4687 62.1256 65.383 62.4046 65.3832C62.7488 65.3832 63.0817 65.5061 63.3434 65.7298C63.4797 65.8411 63.5885 65.9825 63.6612 66.1428C63.7338 66.3032 63.7684 66.4782 63.7622 66.6541C63.7573 66.8689 63.7081 67.0803 63.6178 67.2751C63.5205 67.4908 63.3717 67.6792 63.1845 67.8239C63.3657 67.859 63.552 67.859 63.7333 67.8239H64.3399V68.4883H63.7622ZM63.2423 66.5675C63.2463 66.4749 63.2318 66.3825 63.1995 66.2957C63.1673 66.2089 63.118 66.1294 63.0545 66.062C62.984 65.9885 62.8985 65.9311 62.8038 65.8937C62.709 65.8564 62.6074 65.8399 62.5057 65.8454C62.4018 65.8396 62.298 65.856 62.2009 65.8933C62.1038 65.9307 62.0157 65.9882 61.9425 66.062C61.8195 66.2014 61.7526 66.3815 61.7547 66.5675C61.7526 66.7131 61.7872 66.857 61.8553 66.9857C61.9235 67.1144 62.023 67.2239 62.1447 67.304C62.2564 67.3897 62.3775 67.4624 62.5057 67.5206C62.6328 67.4688 62.75 67.3955 62.8523 67.304C62.9759 67.226 63.077 67.1169 63.1454 66.9877C63.2138 66.8585 63.2472 66.7136 63.2423 66.5675ZM62.1447 64.8777V64.2278H62.7801V64.8777H62.1447Z" fill="#00026F"/>
<path d="M64.1666 67.8239H64.7587C65.0909 67.8239 65.2642 67.5929 65.2642 67.1452V65.8454H65.9141V67.1163C65.9354 67.3474 65.9007 67.5802 65.813 67.795H66.4195C66.7517 67.795 66.9106 67.5784 66.9106 67.1452V65.8165H67.5749V67.0874C67.6041 67.331 67.5588 67.5777 67.4449 67.795H68.0804C68.4126 67.795 68.5714 67.5784 68.5714 67.1596V65.8165H69.2358V67.0729C69.2369 67.3209 69.1878 67.5666 69.0913 67.795H69.3369V68.4594H64.1666V67.8239Z" fill="#00026F"/>
<path d="M69.1347 68.4883V67.8239H69.7412C69.8173 67.8328 69.8944 67.8198 69.9634 67.7866C70.0325 67.7534 70.0907 67.7012 70.1312 67.6362C70.1619 67.4885 70.1619 67.3361 70.1312 67.1885V64.7333H70.7811V67.1596C70.8025 67.3906 70.7521 67.6226 70.6367 67.8239H70.9977V68.4883H69.1347Z" fill="#00026F"/>
<path d="M71.5754 68.4883H70.8966V67.8239H71.4454C71.5259 67.8368 71.6084 67.8259 71.6828 67.7925C71.7572 67.7592 71.8203 67.7048 71.8642 67.6362C71.8861 67.4974 71.8861 67.3561 71.8642 67.2174V64.7333H72.5141V67.434C72.5575 68.1417 72.2397 68.4883 71.5754 68.4883Z" fill="#00026F"/>
<path d="M79.3597 68.4883C79.1052 68.5056 78.8497 68.4712 78.6087 68.3872C78.4282 68.2973 78.2776 68.1568 78.1755 67.9828C78.0919 68.4082 77.8556 68.7883 77.5111 69.0515C77.1509 69.3262 76.7074 69.4689 76.2547 69.4559C75.9899 69.4579 75.7275 69.4067 75.4829 69.3055C75.2383 69.2042 75.0165 69.0549 74.8307 68.8663C74.6448 68.6778 74.4987 68.4539 74.401 68.2078C74.3032 67.9618 74.2558 67.6987 74.2616 67.434V66.8274H74.9115V67.4051C74.8944 67.7939 75.0231 68.1751 75.2726 68.4738C75.4037 68.607 75.5617 68.7106 75.736 68.7778C75.9103 68.8451 76.097 68.8744 76.2836 68.8638C76.6241 68.8719 76.9567 68.7594 77.2223 68.546C77.3392 68.4556 77.4338 68.3396 77.4989 68.2069C77.564 68.0742 77.5978 67.9284 77.5978 67.7806C77.6072 67.6186 77.5557 67.4589 77.4534 67.3329C77.3967 67.2762 77.329 67.2316 77.2545 67.2018C77.18 67.172 77.1003 67.1576 77.0201 67.1596H76.9046V66.553H77.1645C77.4034 66.5452 77.6395 66.6064 77.8444 66.7293C78.0493 66.8523 78.2144 67.0318 78.3199 67.2462C78.4112 67.4251 78.5335 67.5865 78.681 67.7228C78.809 67.8088 78.96 67.8541 79.1142 67.8528H79.3597V68.4883Z" fill="#00026F"/>
<path d="M79.1287 65.3832V64.6611H79.7641V65.3832H79.1287ZM79.1287 68.5605V67.8961H79.7352C79.8113 67.905 79.8884 67.8921 79.9574 67.8588C80.0265 67.8256 80.0846 67.7734 80.1252 67.7084C80.1559 67.5607 80.1559 67.4083 80.1252 67.2607V65.9176H80.7751V67.2318C80.7965 67.4628 80.7461 67.6949 80.6306 67.8961H81.3816V68.5605H79.1287ZM80.1974 65.3832V64.6611H80.8473V65.3832H80.1974Z" fill="#00026F"/>
<path d="M81.2805 69.7159V69.066H81.9305V69.7159H81.2805ZM81.2805 68.4449V67.7806H81.9016C81.9798 67.7906 82.0593 67.7782 82.1308 67.745C82.2024 67.7118 82.2631 67.6591 82.3059 67.5929C82.3367 67.4452 82.3367 67.2928 82.3059 67.1452V65.802H82.9414V67.1163C82.9702 67.3477 82.9193 67.582 82.797 67.7806H83.8946V68.4449H81.2805ZM82.3493 69.7159V69.066H82.9992V69.7159H82.3493Z" fill="#00026F"/>
<path d="M84.3279 67.8239C84.66 67.8239 84.8189 67.5929 84.8189 67.1451V65.8454H85.4832V67.1163C85.5046 67.3474 85.4699 67.5802 85.3821 67.795H85.9887C86.3064 67.795 86.4797 67.5784 86.4797 67.1451V65.8165H87.1296V67.0874C87.1589 67.331 87.1135 67.5777 86.9997 67.795H87.6351C87.9673 67.795 88.1262 67.5784 88.1262 67.1596V65.8165H88.7905V67.0729C88.8034 67.4364 88.6913 67.7932 88.4728 68.0839C88.3749 68.2033 88.2514 68.2991 88.1113 68.3641C87.9713 68.4292 87.8184 68.4617 87.664 68.4594H83.8513V67.795L84.3279 67.8239Z" fill="#00026F"/>
<path d="M93.9896 68.8782C93.802 69.0692 93.5767 69.2191 93.3281 69.3185C93.0795 69.418 92.813 69.4647 92.5454 69.4559C92.2778 69.4647 92.0113 69.418 91.7627 69.3185C91.5141 69.2191 91.2889 69.0692 91.1012 68.8782C90.9065 68.6933 90.7541 68.4685 90.6544 68.2193C90.5547 67.97 90.5101 67.7021 90.5235 67.434V66.8274H91.1734V67.3907C91.1518 67.7713 91.2816 68.1451 91.5345 68.4305C91.6631 68.5678 91.8203 68.6752 91.995 68.745C92.1697 68.8149 92.3576 68.8456 92.5454 68.8349C93.3831 68.8349 93.8452 68.3872 93.9174 67.4773H92.3866C92.3638 67.2145 92.397 66.9499 92.4842 66.7009C92.5713 66.452 92.7103 66.2243 92.892 66.0331C93.0879 65.8591 93.3165 65.726 93.5645 65.6417C93.8126 65.5573 94.0749 65.5235 94.3363 65.5421V66.1486C94.0902 66.1379 93.8446 66.1772 93.6141 66.2642C93.389 66.377 93.2177 66.5743 93.1376 66.813H94.5818V67.434C94.5934 67.7032 94.5465 67.9718 94.4442 68.2211C94.342 68.4704 94.1869 68.6946 93.9896 68.8782Z" fill="#00026F"/>
<path d="M95.1595 68.4883V67.8239H96.0549L95.3183 65.1521H95.9971L96.7337 67.8239C96.804 67.8291 96.8747 67.8202 96.9416 67.7979C97.0086 67.7756 97.0704 67.7403 97.1236 67.694C97.1868 67.6185 97.2335 67.5308 97.2609 67.4363C97.2883 67.3418 97.2956 67.2426 97.2825 67.1452V64.7333H97.9035V67.6217C97.9112 67.7034 97.9112 67.7856 97.9035 67.8673H98.0624V68.5316L95.1595 68.4883Z" fill="#00026F"/>
<path d="M100.286 68.4883H97.9035V67.8239H99.1744C99.0645 67.6097 99.0099 67.3714 99.0155 67.1307C99.0089 66.9536 99.0374 66.7769 99.0993 66.6108C99.1613 66.4447 99.2555 66.2926 99.3766 66.1631C99.4995 66.0403 99.6461 65.9437 99.8075 65.8792C99.9688 65.8146 100.142 65.7835 100.315 65.7876C100.491 65.7818 100.665 65.8136 100.827 65.8808C100.989 65.9481 101.135 66.0493 101.254 66.1775C101.498 66.4461 101.632 66.7967 101.63 67.1596C101.629 67.5106 101.501 67.8495 101.269 68.1128C101.14 68.2403 100.986 68.3396 100.817 68.4043C100.648 68.4689 100.467 68.4975 100.286 68.4883ZM100.792 66.5963C100.733 66.5277 100.66 66.4728 100.578 66.4354C100.495 66.3979 100.406 66.3789 100.315 66.3797C100.23 66.3784 100.146 66.3959 100.069 66.4308C99.9915 66.4658 99.9228 66.5174 99.8676 66.5819C99.7468 66.7386 99.6854 66.933 99.6943 67.1307C99.6847 67.3265 99.7521 67.5183 99.8821 67.6651C99.9359 67.7368 100.006 67.795 100.086 67.8352C100.166 67.8753 100.255 67.8961 100.344 67.8961C100.433 67.899 100.521 67.8808 100.601 67.8432C100.682 67.8055 100.752 67.7495 100.806 67.6795C100.917 67.5292 100.973 67.3459 100.965 67.1596C100.973 66.9577 100.912 66.7592 100.792 66.5963ZM99.9687 65.3832V64.6611H100.604V65.3832H99.9687Z" fill="#00026F"/>
<path d="M85.5121 33.8271C85.7553 34.0651 85.9486 34.3493 86.0805 34.663C86.2124 34.9768 86.2804 35.3137 86.2804 35.654C86.2804 35.9943 86.2124 36.3312 86.0805 36.6449C85.9486 36.9587 85.7553 37.2429 85.5121 37.4809C85.2753 37.7237 84.9923 37.9167 84.6798 38.0484C84.3673 38.1802 84.0316 38.2481 83.6924 38.2481C83.3532 38.2481 83.0175 38.1802 82.705 38.0484C82.3925 37.9167 82.1095 37.7237 81.8727 37.4809C81.6294 37.2429 81.4362 36.9587 81.3043 36.6449C81.1723 36.3312 81.1044 35.9943 81.1044 35.654C81.1044 35.3137 81.1723 34.9768 81.3043 34.663C81.4362 34.3493 81.6294 34.0651 81.8727 33.8271C82.3568 33.3473 83.0108 33.0781 83.6924 33.0781C84.374 33.0781 85.028 33.3473 85.5121 33.8271Z" fill="#F5C603"/>
<path d="M24.7539 23.3854C27.1744 18.3668 30.9613 14.1327 35.6798 11.1693C40.3982 8.20588 45.8568 6.63341 51.4286 6.63245C56.9865 6.63799 62.4309 8.20637 67.14 11.1585C71.8491 14.1106 75.6331 18.3275 78.0599 23.3276C78.7461 24.7581 79.8211 25.9665 81.162 26.8145C82.503 27.6624 84.0555 28.1157 85.6421 28.1224C83.8218 20.3963 79.4453 13.5115 73.2221 8.58415C66.999 3.65681 59.294 0.975817 51.3564 0.975817C43.4187 0.975817 35.7137 3.65681 29.4906 8.58415C23.2674 13.5115 18.891 20.3963 17.0706 28.1224C18.6682 28.14 20.238 27.7044 21.5979 26.8659C22.9578 26.0275 24.0521 24.8206 24.7539 23.3854Z" fill="#F5C603"/>
</svg>
