<svg width="13" height="13" viewBox="0 0 13 13" fill="none" xmlns="http://www.w3.org/2000/svg">
<path d="M6.375 9.03125C4.90875 9.03125 3.71875 7.84125 3.71875 6.375C3.71875 4.90875 4.90875 3.71875 6.375 3.71875C7.84125 3.71875 9.03125 4.90875 9.03125 6.375C9.03125 7.84125 7.84125 9.03125 6.375 9.03125ZM6.90625 2.125V0.53125C6.90625 0.239062 6.66719 0 6.375 0C6.08281 0 5.84375 0.239062 5.84375 0.53125V2.125C5.84375 2.41719 6.08281 2.65625 6.375 2.65625C6.66719 2.65625 6.90625 2.41719 6.90625 2.125ZM6.90625 12.2188V10.625C6.90625 10.3328 6.66719 10.0938 6.375 10.0938C6.08281 10.0938 5.84375 10.3328 5.84375 10.625V12.2188C5.84375 12.5109 6.08281 12.75 6.375 12.75C6.66719 12.75 6.90625 12.5109 6.90625 12.2188ZM2.65625 6.375C2.65625 6.08281 2.41719 5.84375 2.125 5.84375H0.53125C0.239062 5.84375 0 6.08281 0 6.375C0 6.66719 0.239062 6.90625 0.53125 6.90625H2.125C2.41719 6.90625 2.65625 6.66719 2.65625 6.375ZM12.75 6.375C12.75 6.08281 12.5109 5.84375 12.2188 5.84375H10.625C10.3328 5.84375 10.0938 6.08281 10.0938 6.375C10.0938 6.66719 10.3328 6.90625 10.625 6.90625H12.2188C12.5109 6.90625 12.75 6.66719 12.75 6.375ZM3.56469 3.56469C3.77187 3.3575 3.77187 3.02281 3.56469 2.81563L2.50219 1.75312C2.295 1.54594 1.96031 1.54594 1.75312 1.75312C1.54594 1.96031 1.54594 2.295 1.75312 2.50219L2.81563 3.56469C2.92188 3.67094 3.05469 3.71875 3.19281 3.71875C3.33094 3.71875 3.46375 3.66563 3.57 3.56469H3.56469ZM11.0022 11.0022C11.2094 10.795 11.2094 10.4603 11.0022 10.2531L9.93969 9.19062C9.7325 8.98344 9.39781 8.98344 9.19062 9.19062C8.98344 9.39781 8.98344 9.7325 9.19062 9.93969L10.2531 11.0022C10.3594 11.1084 10.4922 11.1562 10.6303 11.1562C10.7684 11.1562 10.9012 11.1031 11.0075 11.0022H11.0022ZM2.50219 11.0022L3.56469 9.93969C3.77187 9.7325 3.77187 9.39781 3.56469 9.19062C3.3575 8.98344 3.02281 8.98344 2.81563 9.19062L1.75312 10.2531C1.54594 10.4603 1.54594 10.795 1.75312 11.0022C1.85938 11.1084 1.99219 11.1562 2.13031 11.1562C2.26844 11.1562 2.40125 11.1031 2.5075 11.0022H2.50219ZM9.93969 3.56469L11.0022 2.50219C11.2094 2.295 11.2094 1.96031 11.0022 1.75312C10.795 1.54594 10.4603 1.54594 10.2531 1.75312L9.19062 2.81563C8.98344 3.02281 8.98344 3.3575 9.19062 3.56469C9.29688 3.67094 9.42969 3.71875 9.56781 3.71875C9.70594 3.71875 9.83875 3.66563 9.945 3.56469H9.93969Z" fill="#00026F"/>
</svg>
