<svg width="17" height="17" viewBox="0 0 17 17" fill="none" xmlns="http://www.w3.org/2000/svg">
<path d="M16.3311 8.85031C16.3311 12.2884 13.8501 15.3716 10.3571 16.062C7.77803 16.5731 5.51071 15.8827 3.59093 14.0753C3.41299 13.9081 3.34051 13.7106 3.40509 13.4797C3.46967 13.2488 3.64158 13.121 3.87899 13.0755C5.84059 12.7038 7.56477 11.8262 9.08684 10.554C11.1311 8.84566 12.4934 6.70054 13.1234 4.10243C13.155 3.97327 13.175 3.84131 13.2024 3.71122C13.2194 3.61025 13.2658 3.51651 13.3356 3.44167C13.4055 3.36683 13.4959 3.31418 13.5954 3.29028C13.8115 3.23267 14.0038 3.29028 14.1665 3.45522C14.8693 4.16442 15.423 5.00715 15.795 5.93373C16.167 6.86031 16.3498 7.85199 16.3325 8.85031H16.3311Z" fill="#00026F"/>
<path d="M11.7469 5.19934C10.381 8.20631 8.18908 10.3578 5.17127 11.6537C4.45251 10.219 4.51012 7.92197 6.06843 6.2712C7.65741 4.58605 10.0451 4.35653 11.7469 5.19934Z" fill="#00026F"/>
<path d="M8.65163 2.16359C8.65163 1.8681 8.65163 1.5726 8.65163 1.27711C8.65442 0.917035 8.8765 0.673113 9.20127 0.667073C9.53858 0.661962 9.77088 0.89938 9.7746 1.27107C9.78017 1.86825 9.78017 2.46528 9.7746 3.06215C9.77088 3.43152 9.53765 3.66847 9.2008 3.66383C8.87975 3.65964 8.65442 3.41015 8.65163 3.05193C8.64884 2.75458 8.65163 2.45908 8.65163 2.16359Z" fill="#00026F"/>
<path d="M5.5432 4.84833C5.50974 5.09968 5.40382 5.27484 5.19149 5.37659C4.97916 5.47834 4.76172 5.45279 4.59399 5.29018C4.12319 4.83485 3.65981 4.37194 3.20387 3.90145C3.00084 3.69144 3.0236 3.35135 3.22664 3.14552C3.42967 2.9397 3.7642 2.90625 3.98024 3.11346C4.45647 3.57111 4.92155 4.04269 5.38012 4.51613C5.46189 4.60069 5.49209 4.73636 5.5432 4.84833Z" fill="#00026F"/>
<path d="M2.2484 9.68297C1.94129 9.68297 1.63418 9.68622 1.32707 9.68297C0.988834 9.67878 0.747236 9.43997 0.750024 9.12125C0.752812 8.80252 0.999521 8.57068 1.33962 8.56975C1.94826 8.56789 2.55675 8.56789 3.16508 8.56975C3.50193 8.56975 3.7491 8.80856 3.75049 9.12729C3.75189 9.44601 3.51261 9.67832 3.16973 9.68482H2.2484V9.68297Z" fill="#00026F"/>
</svg>
