<svg width="13" height="13" viewBox="0 0 13 13" fill="none" xmlns="http://www.w3.org/2000/svg">
<path d="M7.37963 12.7491C6.33845 12.7491 5.34136 12.7449 4.99394 12.7353C4.84432 12.7306 4.6957 12.7091 4.55091 12.671C4.17991 12.5683 3.84995 12.3529 3.6066 12.0546C3.36324 11.7563 3.21848 11.3898 3.1923 11.0057C3.16613 10.6216 3.25982 10.2389 3.46045 9.91031C3.66109 9.58175 3.95877 9.32357 4.3124 9.17141C4.21732 8.69116 4.22765 8.196 4.34268 7.72013C4.50384 7.06852 4.86661 6.48441 5.37928 6.05111C5.89194 5.6178 6.52833 5.35742 7.19769 5.30707C7.86705 5.25673 8.53522 5.419 9.10693 5.77075C9.67864 6.1225 10.1247 6.64577 10.3815 7.26595C10.4538 7.43912 10.7868 7.51509 10.7868 7.51509C11.4541 7.69694 12.0245 8.1312 12.3773 8.72603C12.7301 9.32086 12.8378 10.0296 12.6774 10.7024C12.5661 11.1809 12.3229 11.6186 11.9755 11.966C11.6282 12.3134 11.1904 12.5565 10.7119 12.6679C10.5264 12.7102 10.337 12.7335 10.1467 12.7375C9.6835 12.7438 8.50633 12.7491 7.37963 12.7491ZM4.77402 5.18199C5.29965 4.75422 5.92073 4.45958 6.58455 4.32308C7.24836 4.18659 7.9353 4.21226 8.58708 4.39792C8.71999 4.43356 8.85872 4.44205 8.99498 4.42288C9.13125 4.40372 9.26225 4.35729 9.38018 4.28637L10.6801 3.52726C10.7382 3.48872 10.7883 3.43909 10.8273 3.38122C10.8663 3.32335 10.8935 3.25836 10.9074 3.18997C10.9213 3.12157 10.9215 3.05112 10.9082 2.98262C10.8948 2.91411 10.8681 2.84891 10.8296 2.79073C10.7911 2.73255 10.7414 2.68253 10.6836 2.64353C10.6257 2.60453 10.5607 2.57731 10.4923 2.56342C10.4239 2.54954 10.3534 2.54926 10.2849 2.5626C10.2164 2.57595 10.1512 2.60265 10.0931 2.6412L8.69013 3.57082C8.39584 3.72009 8.24232 3.33602 8.01549 3.18994L8.99452 1.51874C9.02978 1.4585 9.05283 1.39191 9.06236 1.32276C9.07189 1.25362 9.0677 1.18327 9.05004 1.11574C9.03238 1.04821 9.0016 0.984819 8.95944 0.929187C8.91728 0.873556 8.86458 0.826773 8.80434 0.791509C8.7441 0.756245 8.67751 0.733192 8.60836 0.723664C8.53922 0.714137 8.46887 0.718322 8.40134 0.735982C8.33381 0.753641 8.27042 0.784428 8.21479 0.826586C8.15916 0.868744 8.11237 0.921446 8.07711 0.981684L7.10977 2.63642C6.87358 2.53951 6.62682 2.47069 6.37457 2.43137V0.531214C6.37457 0.390327 6.3186 0.255211 6.21898 0.155589C6.11936 0.055967 5.98424 0 5.84335 0C5.70247 0 5.56735 0.055967 5.46773 0.155589C5.36811 0.255211 5.31214 0.390327 5.31214 0.531214V2.43296C5.07119 2.47216 4.83507 2.53679 4.60775 2.62579L3.62872 0.974247C3.59315 0.914218 3.54609 0.861785 3.49025 0.819941C3.43441 0.778097 3.37087 0.747661 3.30327 0.730372C3.16674 0.695454 3.02193 0.716204 2.90069 0.788056C2.77946 0.859908 2.69174 0.976977 2.65682 1.11351C2.6219 1.25004 2.64265 1.39485 2.7145 1.51609L3.68875 3.15913C3.50432 3.30736 3.3351 3.47356 3.18357 3.65528L1.5368 2.69166C1.47655 2.65369 1.40928 2.62821 1.33898 2.61676C1.26869 2.60531 1.19681 2.6081 1.12761 2.62499C1.05842 2.64187 0.993334 2.6725 0.936217 2.71505C0.8791 2.75759 0.831122 2.81119 0.795136 2.87265C0.759149 2.93411 0.73589 3.00218 0.72674 3.07282C0.717591 3.14345 0.722738 3.2152 0.741876 3.2838C0.761014 3.3524 0.793752 3.41646 0.838142 3.47215C0.882533 3.52785 0.937671 3.57405 1.00028 3.60801L2.63588 4.56844C2.53848 4.80744 2.46948 5.05705 2.4303 5.31214H0.531214C0.390327 5.31214 0.255211 5.36811 0.155589 5.46773C0.055967 5.56735 0 5.70247 0 5.84335C0 5.98424 0.055967 6.11936 0.155589 6.21898C0.255211 6.3186 0.390327 6.37457 0.531214 6.37457H2.43084C2.4552 6.53305 2.4907 6.68961 2.53708 6.8431C2.54649 6.90185 2.53589 6.96207 2.50699 7.01408C2.4781 7.0661 2.43257 7.1069 2.37771 7.12996L0.939186 7.98627C0.818094 8.05834 0.730589 8.17555 0.69592 8.31213C0.661252 8.44871 0.68226 8.59347 0.754324 8.71457C0.826388 8.83566 0.943603 8.92316 1.08018 8.95783C1.21677 8.9925 1.36153 8.97149 1.48262 8.89943L2.85846 8.0957C2.96755 8.03384 3.06291 7.9504 3.13871 7.85049C3.21451 7.75058 3.26918 7.63628 3.29937 7.51455C3.51704 6.59434 4.0361 5.7733 4.77402 5.18199Z" fill="#00026F"/>
</svg>
