<svg width="13" height="13" viewBox="0 0 13 13" fill="none" xmlns="http://www.w3.org/2000/svg">
<path d="M6.37597 12.7585C5.4827 12.7532 4.60041 12.5613 3.78559 12.1952C2.97078 11.8291 2.24141 11.2969 1.64421 10.6326C1.04701 9.96826 0.595148 9.18654 0.317564 8.33749C0.0399789 7.48843 -0.0572058 6.59076 0.0322344 5.70197C0.191158 4.3141 0.796833 3.01547 1.758 2.00177C2.71916 0.988062 3.98375 0.314194 5.3612 0.0817001C6.25109 -0.0563656 7.15938 -0.0191673 8.03499 0.191203C8.26555 0.25038 8.47599 0.370397 8.6443 0.538713C8.81262 0.707029 8.93264 0.917464 8.99181 1.14803C9.05143 1.37649 9.04833 1.61681 8.98285 1.84367C8.91737 2.07053 8.79192 2.27553 8.61972 2.43708C6.1963 4.65265 6.40574 8.09562 9.04869 10.098C9.23539 10.2447 9.37939 10.4387 9.46571 10.6599C9.55203 10.881 9.57753 11.1213 9.53954 11.3557C9.50156 11.59 9.40148 11.8099 9.24972 11.9925C9.09796 12.1751 8.90006 12.3137 8.67659 12.3939C7.93388 12.6365 7.15732 12.7596 6.37597 12.7585ZM10.8895 6.37972C10.771 6.37972 10.6559 6.34012 10.5625 6.26721C10.4691 6.1943 10.4027 6.09227 10.3739 5.97732L10.1836 5.21718L9.42238 5.01253C9.30791 4.98171 9.20701 4.91351 9.13575 4.81877C9.06448 4.72402 9.02694 4.60818 9.02907 4.48964C9.03121 4.37111 9.07292 4.25669 9.14755 4.16458C9.22219 4.07247 9.32547 4.00795 9.44099 3.98128L10.1852 3.80852L10.3718 3.06114C10.4006 2.9462 10.467 2.84418 10.5604 2.77128C10.6538 2.69839 10.7689 2.6588 10.8874 2.6588C11.0059 2.6588 11.121 2.69839 11.2144 2.77128C11.3078 2.84418 11.3742 2.9462 11.403 3.06114L11.5917 3.8149L12.3455 4.00361C12.4604 4.03242 12.5624 4.0988 12.6353 4.19222C12.7082 4.28564 12.7478 4.40074 12.7478 4.51923C12.7478 4.63772 12.7082 4.75282 12.6353 4.84624C12.5624 4.93966 12.4604 5.00604 12.3455 5.03485L11.5917 5.22356L11.403 5.97732C11.3743 6.09192 11.3082 6.19369 11.2152 6.26656C11.1223 6.33943 11.0076 6.37924 10.8895 6.37972ZM12.2184 9.04553C12.0775 9.04553 11.9422 9.10154 11.8426 9.20122C11.7429 9.30091 11.6869 9.43612 11.6869 9.5771C11.6869 9.71808 11.7429 9.85329 11.8426 9.95298C11.9422 10.0527 12.0775 10.1087 12.2184 10.1087C12.3594 10.1087 12.4946 10.0527 12.5943 9.95298C12.694 9.85329 12.75 9.71808 12.75 9.5771C12.75 9.43612 12.694 9.30091 12.5943 9.20122C12.4946 9.10154 12.3594 9.04553 12.2184 9.04553ZM9.02902 6.91926C8.88804 6.91926 8.75284 6.97526 8.65315 7.07495C8.55346 7.17464 8.49746 7.30985 8.49746 7.45083C8.49746 7.59181 8.55346 7.72702 8.65315 7.8267C8.75284 7.92639 8.88804 7.9824 9.02902 7.9824C9.17 7.9824 9.30521 7.92639 9.4049 7.8267C9.50459 7.72702 9.56059 7.59181 9.56059 7.45083C9.56059 7.30985 9.50459 7.17464 9.4049 7.07495C9.30521 6.97526 9.17 6.91926 9.02902 6.91926Z" fill="#00026F"/>
</svg>
